<?xml version="1.0" standalone="no"?>
<!DOCTYPE svg PUBLIC "-//W3C//DTD SVG 1.1//EN"
  "http://www.w3.org/Graphics/SVG/1.1/DTD/svg11.dtd">
<svg width="343.6000061035156mm" height="181.6000061035156mm" viewBox="-190.10000610351562 149.49999999999997 343.6000061035156 181.6000061035156" xmlns="http://www.w3.org/2000/svg" version="1.1">
	<title>svgOutput</title>
	<desc>made with tinkercad</desc>
<path d="M -189.10000610351562 189.12499999999997 L -189.10000610351562 186.12499999999997 L -189 186.12499999999997 L -186.10000610351562 186.12499999999997 L -186.10000610351562 173.85299682617185 L -186.10000610351562 171.14799499511716 L -186.10000610351562 153.49999999999997 L -173.9029998779297 153.49999999999997 L -170.8979949951172 153.49999999999997 L -170.60000610351562 153.49999999999997 L -170.60000610351562 150.49999999999997 L -168 150.49999999999997 L -167.60000610351562 150.49999999999997 L -167.60000610351562 153.49999999999997 L -166.80299377441406 153.49999999999997 L -159.79800415039062 153.49999999999997 L -159 153.49999999999997 L -152.10000610351562 153.49999999999997 L -152.10000610351562 165.90299987792966 L -152.10000610351562 181.12499999999997 L -150 181.12499999999997 L -149.10000610351562 181.12499999999997 L -149.10000610351562 184.12499999999997 L -150 184.12499999999997 L -152.10000610351562 184.12499999999997 L -152.10000610351562 186.12499999999997 L -152.10000610351562 188.69799804687497 L -152.10000610351562 189.12499999999997 L -152.10000610351562 200.99999999999994 L -152.10000610351562 211.99999999999994 L -152.10000610351562 214.70300292968744 L -152.10000610351562 228.04800415039057 L -152.10000610351562 229.29800415039057 L -155.59800720214844 229.29800415039057 L -155.59800720214844 228.04800415039057 L -158.60299682617188 228.04800415039057 L -158.60299682617188 229.29800415039057 L -161.10299682617188 229.29800415039057 L -161.10299682617188 232.302993774414 L -158.60299682617188 232.302993774414 L -158.60299682617188 233.552993774414 L -155.59800720214844 233.552993774414 L -155.59800720214844 232.302993774414 L -152.10000610351562 232.302993774414 L -152.10000610351562 233.552993774414 L -152.10000610351562 240.64799499511713 L -154.9530029296875 240.64799499511713 L -154.9530029296875 243.35299682617182 L -152.10000610351562 243.35299682617182 L -152.10000610351562 253.64799499511713 L -154.9530029296875 253.64799499511713 L -154.9530029296875 254.37499999999994 L -154.9530029296875 256.3529968261718 L -152.10000610351562 256.3529968261718 L -152.10000610351562 257.37499999999994 L -152.10000610351562 259.37499999999994 L -150 259.37499999999994 L -149.10000610351562 259.37499999999994 L -149.10000610351562 262.37499999999994 L -150 262.37499999999994 L -152.10000610351562 262.37499999999994 L -152.10000610351562 268.80300903320307 L -152.10000610351562 284.29800415039057 L -152.10000610351562 287.0029907226562 L -152.10000610351562 289.99999999999994 L -167.60000610351562 289.99999999999994 L -167.60000610351562 290.10000610351557 L -167.60000610351562 292.99999999999994 L -170.60000610351562 292.99999999999994 L -170.60000610351562 290.10000610351557 L -170.60000610351562 289.99999999999994 L -186.10000610351562 289.99999999999994 L -186.10000610351562 287.0029907226562 L -186.10000610351562 284.29800415039057 L -186.10000610351562 278.0029907226562 L -186.10000610351562 275.29800415039057 L -186.10000610351562 257.37499999999994 L -189 257.37499999999994 L -189.10000610351562 257.37499999999994 L -189.10000610351562 254.37499999999994 L -189 254.37499999999994 L -186.10000610351562 254.37499999999994 L -186.10000610351562 233.552993774414 L -186.10000610351562 232.302993774414 L -182.60299682617188 232.302993774414 L -182.60299682617188 233.552993774414 L -179.59800720214844 233.552993774414 L -179.59800720214844 232.302993774414 L -177.09800720214844 232.302993774414 L -177.09800720214844 232.15299987792963 L -177.09800720214844 229.44799804687494 L -177.09800720214844 229.29800415039057 L -179.59800720214844 229.29800415039057 L -179.59800720214844 228.04800415039057 L -182.60299682617188 228.04800415039057 L -182.60299682617188 229.29800415039057 L -186.10000610351562 229.29800415039057 L -186.10000610351562 228.04800415039057 L -186.10000610351562 218.15299987792963 L -186.10000610351562 215.44799804687494 L -186.10000610351562 214.70300292968744 L -186.10000610351562 189.12499999999997 L -189 189.12499999999997 L -189.10000610351562 189.12499999999997 M -152 254.37499999999994 L -150 254.37499999999994 L -149 254.37499999999994 L -149 233.552993774414 L -149 232.302993774414 L -145.5030059814453 232.302993774414 L -145.5030059814453 233.552993774414 L -142.4980010986328 233.552993774414 L -142.4980010986328 232.302993774414 L -141 232.302993774414 L -139.9980010986328 232.302993774414 L -139.9980010986328 232.15299987792963 L -139.9980010986328 229.44799804687494 L -139.9980010986328 229.29800415039057 L -141 229.29800415039057 L -142.4980010986328 229.29800415039057 L -142.4980010986328 228.04800415039057 L -145.5030059814453 228.04800415039057 L -145.5030059814453 229.29800415039057 L -149 229.29800415039057 L -149 228.04800415039057 L -149 218.15299987792963 L -149 215.44799804687494 L -149 189.12499999999997 L -150 189.12499999999997 L -152 189.12499999999997 L -152 186.12499999999997 L -150 186.12499999999997 L -149 186.12499999999997 L -149 184.12499999999997 L -149 181.12499999999997 L -149 173.85299682617185 L -149 171.14799499511716 L -149 153.49999999999997 L -141 153.49999999999997 L -133.5 153.49999999999997 L -133.5 150.49999999999997 L -131 150.49999999999997 L -130.5 150.49999999999997 L -130.5 153.49999999999997 L -129.7030029296875 153.49999999999997 L -122.697998046875 153.49999999999997 L -122 153.49999999999997 L -115 153.49999999999997 L -115 171.14799499511716 L -115 173.85299682617185 L -115 181.12499999999997 L -114.9000015258789 181.12499999999997 L -114.80000305175781 181.12499999999997 L -112 181.12499999999997 L -112 184.12499999999997 L -114.80000305175781 184.12499999999997 L -114.9000015258789 184.12499999999997 L -115 184.12499999999997 L -115 188.69799804687497 L -115 211.99999999999994 L -115 214.70300292968744 L -115 215.44799804687494 L -115 228.04800415039057 L -115 229.29800415039057 L -118.49800109863281 229.29800415039057 L -118.49800109863281 228.04800415039057 L -121.50299835205078 228.04800415039057 L -121.50299835205078 229.29800415039057 L -124.00299835205078 229.29800415039057 L -124.00299835205078 229.44799804687494 L -124.00299835205078 232.15299987792963 L -124.00299835205078 232.302993774414 L -121.50299835205078 232.302993774414 L -121.50299835205078 233.552993774414 L -118.49800109863281 233.552993774414 L -118.49800109863281 232.302993774414 L -115 232.302993774414 L -115 233.552993774414 L -115 240.64799499511713 L -117.85299682617188 240.64799499511713 L -117.85299682617188 243.35299682617182 L -115 243.35299682617182 L -115 253.64799499511713 L -117.85299682617188 253.64799499511713 L -117.85299682617188 256.3529968261718 L -115 256.3529968261718 L -115 259.37499999999994 L -114.9000015258789 259.37499999999994 L -112 259.37499999999994 L -112 262.37499999999994 L -114.9000015258789 262.37499999999994 L -115 262.37499999999994 L -115 272.60000610351557 L -115 272.7999877929687 L -115 284.2999877929687 L -115 288.2999877929687 L -115 289.99999999999994 L -124.9000015258789 289.99999999999994 L -127.9000015258789 289.99999999999994 L -128 289.99999999999994 L -130.5 289.99999999999994 L -130.5 290.10000610351557 L -130.5 292.99999999999994 L -133.5 292.99999999999994 L -133.5 290.10000610351557 L -133.5 289.99999999999994 L -141 289.99999999999994 L -149 289.99999999999994 L -149 287.0029907226562 L -149 284.29800415039057 L -149 278.0029907226562 L -149 275.29800415039057 L -149 262.37499999999994 L -149 259.37499999999994 L -149 257.37499999999994 L -150 257.37499999999994 L -152 257.37499999999994 L -152 254.37499999999994 M -166.14500427246094 203.8600006103515 L -164.89100646972656 203.22000122070307 L -163.5 202.99999999999994 L -162.11000061035156 203.22000122070307 L -160.85499572753906 203.8600006103515 L -159.9149932861328 204.80000305175776 L -159.86000061035156 204.854995727539 L -159.2209930419922 206.1100006103515 L -159 207.49999999999994 L -159.2209930419922 208.8910064697265 L -159.278076171875 209.00300598144526 L -159.86000061035156 210.14500427246088 L -160.85499572753906 211.1410064697265 L -162.11000061035156 211.77999877929682 L -163.5 211.99999999999994 L -164.89100646972656 211.77999877929682 L -165.0030059814453 211.72293090820307 L -166.14500427246094 211.1410064697265 L -167.14100646972656 210.14500427246088 L -167.77999877929688 208.8910064697265 L -168 207.49999999999994 L -167.77999877929688 206.1100006103515 L -167.14100646972656 204.854995727539 L -167.0859375 204.80000305175776 L -166.14500427246094 203.8600006103515 M -159 196.49999999999994 L -159.01708984375 196.60800170898432 L -159.22000122070312 197.88999938964838 L -159.2770233154297 198.00199890136713 L -159.85899353027344 199.14500427246088 L -160.85499572753906 200.13999938964838 L -162.10899353027344 200.77999877929682 L -163.5 200.99999999999994 L -164.88999938964844 200.77999877929682 L -165.0019989013672 200.72288513183588 L -166.14500427246094 200.13999938964838 L -167.13999938964844 199.14500427246088 L -167.7790069580078 197.88999938964838 L -167.9828338623047 196.60800170898432 L -168 196.49999999999994 L -167.7790069580078 195.10899353027338 L -167.13999938964844 193.854995727539 L -166.14500427246094 192.85899353027338 L -165.0019989013672 192.27702331542963 L -164.88999938964844 192.22000122070307 L -163.5 191.99999999999994 L -162.10899353027344 192.22000122070307 L -161.9969940185547 192.27706909179682 L -160.85499572753906 192.85899353027338 L -159.85899353027344 193.854995727539 L -159.22000122070312 195.10899353027338 L -159 196.49999999999994 M -182.5 290.10000610351557 L -179.5 290.10000610351557 L -179.5 292.99999999999994 L -179.5 293.0979919433593 L -179.5030059814453 293.0979919433593 L -179.5030059814453 293.10000610351557 L -179.5030059814453 297.1029968261718 L -164.802001953125 297.1029968261718 L -163.552001953125 297.1029968261718 L -163.552001953125 301.6029968261718 L -162.8209991455078 301.6029968261718 L -162.552001953125 301.6029968261718 L -156.802001953125 301.6029968261718 L -154.2259979248047 301.6029968261718 L -153.5469970703125 301.6029968261718 L -153.5469970703125 297.1029968261718 L -152.2969970703125 297.1029968261718 L -150 297.1029968261718 L -141 297.1029968261718 L -137.4980010986328 297.1029968261718 L -137.4980010986328 297.10000610351557 L -137.4980010986328 294.10000610351557 L -137.4980010986328 293.10000610351557 L -137.4980010986328 293.0979919433593 L -137.5 293.0979919433593 L -137.5 290.10000610351557 L -134.5 290.10000610351557 L -134.5 292.99999999999994 L -134.5 293.0979919433593 L -134.5 293.10000610351557 L -128 293.10000610351557 L -128 294.10000610351557 L -128 297.10000610351557 L -128 297.1029968261718 L -128 300.10000610351557 L -128 308.7479858398437 L -130.8520050048828 308.7479858398437 L -130.8520050048828 311.45300292968744 L -128 311.45300292968744 L -128 314.99999999999994 L -128 318.9030151367187 L -128 319.55300903320307 L -128 327.10000610351557 L -150 327.10000610351557 L -156.802001953125 327.10000610351557 L -157 327.10000610351557 L -157 330.10000610351557 L -160 330.10000610351557 L -160 327.10000610351557 L -162.552001953125 327.10000610351557 L -164.802001953125 327.10000610351557 L -179.8260040283203 327.10000610351557 L -189 327.10000610351557 L -189 311.45300292968744 L -186.1479949951172 311.45300292968744 L -186.1479949951172 308.7479858398437 L -189 308.7479858398437 L -189 297.1029968261718 L -189 293.10000610351557 L -182.5 293.10000610351557 L -182.5 293.0979919433593 L -182.5 290.10000610351557 M -154.5469970703125 315.04846191406244 L -154.5469970703125 315.04800415039057 L -154.5500030517578 315.04800415039057 L -155.6479949951172 315.04800415039057 L -156.802001953125 315.04800415039057 L -162.552001953125 315.04800415039057 L -162.552001953125 315.0483093261718 L -163.24600219726562 315.15798950195307 L -163.83999633789062 315.4606628417968 L -163.87399291992188 315.4779968261718 L -164.3719940185547 315.9760131835937 L -164.69200134277344 316.60400390624994 L -164.802001953125 317.2999877929687 L -164.69200134277344 317.99600219726557 L -164.3719940185547 318.6239929199218 L -163.87399291992188 319.1220092773437 L -163.83999633789062 319.13931274414057 L -163.24600219726562 319.4419860839843 L -162.9575653076172 319.4880065917968 L -162.552001953125 319.5526733398437 L -162.552001953125 319.55300903320307 L -156.802001953125 319.55300903320307 L -154.5500030517578 319.55300903320307 L -154.5469970703125 319.55300903320307 L -154.5469970703125 319.55252075195307 L -154.141845703125 319.4880065917968 L -153.85299682617188 319.4419860839843 L -153.2259979248047 319.1220092773437 L -152.7270050048828 318.6239929199218 L -152.40699768066406 317.99600219726557 L -152.2969970703125 317.2999877929687 L -152.40699768066406 316.60400390624994 L -152.7270050048828 315.9760131835937 L -153.2259979248047 315.4779968261718 L -153.85299682617188 315.15798950195307 L -154.5469970703125 315.04846191406244 M -175.77999877929688 309.10998535156244 L -175.59568786621094 308.7479858398437 L -175.14100646972656 307.85501098632807 L -174.14500427246094 306.85998535156244 L -172.89100646972656 306.22000122070307 L -171.5 305.99999999999994 L -170.11000061035156 306.22000122070307 L -168.85499572753906 306.85998535156244 L -167.86000061035156 307.85501098632807 L -167.4053192138672 308.7479858398437 L -167.2209930419922 309.10998535156244 L -167 310.49999999999994 L -167.12646484375 311.2959899902343 L -167.1514129638672 311.45300292968744 L -167.2209930419922 311.89099121093744 L -167.278076171875 312.0029907226562 L -167.86000061035156 313.1449890136718 L -168.85499572753906 314.14099121093744 L -170.11000061035156 314.7799987792968 L -171.5 314.99999999999994 L -172.89100646972656 314.7799987792968 L -173.0030059814453 314.72293090820307 L -174.14500427246094 314.14099121093744 L -175.14100646972656 313.1449890136718 L -175.77999877929688 311.89099121093744 L -175.84927368164062 311.45300292968744 L -175.8740997314453 311.2959899902343 L -176 310.49999999999994 L -175.77999877929688 309.10998535156244 M -107.05599975585938 315.93899536132807 L -107.11885833740234 316.0624694824218 L -107.5213394165039 316.8529968261718 L -107.80899810791016 317.41799926757807 L -108.98200225830078 318.5910034179687 L -110.45124816894531 319.33901977539057 L -112.0999984741211 319.60000610351557 L -114.68800354003906 319.60000610351557 L -122.60299682617188 319.60000610351557 L -124.9000015258789 319.60000610351557 L -124.9000015258789 322.60000610351557 L -125.3499984741211 322.60000610351557 L -127.9000015258789 322.60000610351557 L -127.9000015258789 319.60000610351557 L -127.9000015258789 314.99999999999994 L -127.9000015258789 307.70300292968744 L -125.3499984741211 307.70300292968744 L -125.197998046875 307.70300292968744 L -125.197998046875 304.9979858398437 L -125.3499984741211 304.9979858398437 L -127.9000015258789 304.9979858398437 L -127.9000015258789 300.10000610351557 L -127.9000015258789 297.10000610351557 L -127.9000015258789 294.10000610351557 L -127.9000015258789 293.10000610351557 L -127.9000015258789 292.99999999999994 L -127.9000015258789 290.10000610351557 L -124.9000015258789 290.10000610351557 L -124.9000015258789 291.2999877929687 L -124.9000015258789 293.10000610351557 L -120.60299682617188 293.10000610351557 L -120.19974517822266 293.10000610351557 L -118.677001953125 293.10000610351557 L -117.40399932861328 293.10000610351557 L -112.0999984741211 293.10000610351557 L -110.4500961303711 293.3615417480468 L -108.99967956542969 294.10000610351557 L -108.98200225830078 294.10900878906244 L -108.17900085449219 294.91198730468744 L -107.80899810791016 295.28201293945307 L -107.52083587646484 295.8479919433593 L -107.09437561035156 296.6856384277343 L -107.05599975585938 296.76098632812494 L -107.0022201538086 297.10000610351557 L -106.96676635742188 297.32351684570307 L -107.40573120117188 297.10000610351557 L -108.8550033569336 296.3619995117187 L -112.0999984741211 295.8479919433593 L -114.68800354003906 296.25793457031244 L -115.34500122070312 296.3619995117187 L -116.79427337646484 297.10000610351557 L -118.27300262451172 297.8529968261718 L -120.5199966430664 300.10000610351557 L -120.59700012207031 300.17700195312494 L -122.08799743652344 303.10501098632807 L -122.60299682617188 306.35000610351557 L -122.08799743652344 309.59500122070307 L -121.22181701660156 311.2959899902343 L -120.59700012207031 312.5230102539062 L -118.27300262451172 314.8469848632812 L -117.97254180908203 314.99999999999994 L -115.34500122070312 316.33801269531244 L -114.68800354003906 316.44226074218744 L -112.0999984741211 316.8529968261718 L -108.8550033569336 316.33801269531244 L -106.96676635742188 315.37646484374994 L -107.05599975585938 315.93899536132807 M -106.5 272.7999877929687 L -104.7979965209961 272.7999877929687 L -99.01000213623047 272.7999877929687 L -74.69999694824219 272.7999877929687 L -69.69999694824219 272.7999877929687 L -66.69999694824219 272.7999877929687 L -61.70000076293945 272.7999877929687 L -61.599998474121094 272.7999877929687 L -58.00299835205078 272.7999877929687 L -56.599998474121094 272.7999877929687 L -55.49800109863281 272.7999877929687 L -53.599998474121094 272.7999877929687 L -53.00299835205078 272.7999877929687 L -51.5 272.7999877929687 L -51.5 276.29800415039057 L -53.00299835205078 276.29800415039057 L -53.00299835205078 279.30300903320307 L -51.5 279.30300903320307 L -51.5 282.80200195312494 L -51.5 284.2999877929687 L -51.5 288.2999877929687 L -48.5 288.2999877929687 L -48.5 291.2999877929687 L -51.5 291.2999877929687 L -51.5 294.10000610351557 L -51.5 297.10000610351557 L -51.5 298.89199829101557 L -51.5 300.10000610351557 L -51.5 300.29699707031244 L -53.00299835205078 300.29699707031244 L -53.00299835205078 301.89199829101557 L -53.00299835205078 303.30200195312494 L -51.5 303.30200195312494 L -51.5 303.49999999999994 L -51.5 306.7999877929687 L -53.00299835205078 306.7999877929687 L -58.904998779296875 306.7999877929687 L -98.8499984741211 306.7999877929687 L -99.01000213623047 306.7999877929687 L -104.7979965209961 306.7999877929687 L -106.5 306.7999877929687 L -106.5 303.30200195312494 L -104.7979965209961 303.30200195312494 L -104.7979965209961 300.29699707031244 L -106.5 300.29699707031244 L -106.5 300.10000610351557 L -106.5 297.5612182617187 L -106.5 297.2799987792968 L -106.5 297.10000610351557 L -106.5 295.8479919433593 L -106.5 294.91198730468744 L -106.5 294.51626586914057 L -106.5 294.10000610351557 L -106.5 293.10000610351557 L -106.5 291.2999877929687 L -109.5 291.2999877929687 L -109.5 289.99999999999994 L -109.5 288.2999877929687 L -106.5 288.2999877929687 L -106.5 284.2999877929687 L -106.5 279.30300903320307 L -104.7979965209961 279.30300903320307 L -104.7979965209961 276.29800415039057 L -106.5 276.29800415039057 L -106.5 272.7999877929687 M -114.9000015258789 263.60000610351557 L -111.9000015258789 263.60000610351557 L -111.9000015258789 262.37499999999994 L -111.9000015258789 259.37499999999994 L -111.9000015258789 258.5029907226562 L -111.9000015258789 245.09800720214838 L -111.9000015258789 242.10299682617182 L -108.9000015258789 242.10299682617182 L -108.9000015258789 237.10099792480463 L -108.9000015258789 236.1775512695312 L -108.9000015258789 236.09187316894526 L -108.9000015258789 236.01455688476557 L -108.9000015258789 235.92829895019526 L -108.9000015258789 235.85530090332026 L -108.9000015258789 235.77961730957026 L -108.9000015258789 235.70153808593744 L -108.9000015258789 235.60099792480463 L -108.89299774169922 235.74800109863276 L -108.87100219726562 235.89399719238276 L -108.83499908447266 236.03599548339838 L -108.78500366210938 236.17500305175776 L -108.7229995727539 236.3079986572265 L -108.64700317382812 236.43400573730463 L -108.55899810791016 236.552993774414 L -108.54399871826172 236.5695190429687 L -108.45999908447266 236.6620025634765 L -108.35099792480469 236.761001586914 L -108.23300170898438 236.84800720214838 L -108.10600280761719 236.92399597167963 L -107.9729995727539 236.9869995117187 L -107.83399963378906 237.0370025634765 L -107.69100189208984 237.07200622558588 L -107.5459976196289 237.09399414062494 L -107.5199966430664 237.09524536132807 L -107.39900207519531 237.10099792480463 L -107.2509994506836 237.09399414062494 L -107.10600280761719 237.07200622558588 L -106.96299743652344 237.0370025634765 L -106.8239974975586 236.9869995117187 L -106.69100189208984 236.92399597167963 L -106.56400299072266 236.84800720214838 L -106.49600219726562 236.797866821289 L -106.44599914550781 236.761001586914 L -106.33699798583984 236.6620025634765 L -106.23799896240234 236.552993774414 L -106.1500015258789 236.43400573730463 L -106.07499694824219 236.3079986572265 L -106.01200103759766 236.17500305175776 L -105.96199798583984 236.03599548339838 L -105.9260025024414 235.89399719238276 L -105.90399932861328 235.74800109863276 L -105.89700317382812 235.60099792480463 L -105.89700317382812 228.59899902343744 L -105.90399932861328 228.45199584960932 L -105.9260025024414 228.30599975585932 L -105.96199798583984 228.1640014648437 L -106.01200103759766 228.02499389648432 L -106.07499694824219 227.89199829101557 L -106.1500015258789 227.7660064697265 L -106.23799896240234 227.64700317382807 L -106.33699798583984 227.53799438476557 L -106.44599914550781 227.43899536132807 L -106.49600219726562 227.40213012695307 L -106.56400299072266 227.35200500488276 L -106.69100189208984 227.27600097656244 L -106.8239974975586 227.21299743652338 L -106.96299743652344 227.16299438476557 L -107.10600280761719 227.12800598144526 L -107.2509994506836 227.10600280761713 L -107.39900207519531 227.09899902343744 L -107.5199966430664 227.10476684570307 L -107.5459976196289 227.10600280761713 L -107.69100189208984 227.12800598144526 L -107.83399963378906 227.16299438476557 L -107.9729995727539 227.21299743652338 L -108.10600280761719 227.27600097656244 L -108.23300170898438 227.35200500488276 L -108.35099792480469 227.43899536132807 L -108.45999908447266 227.53799438476557 L -108.54399871826172 227.63047790527338 L -108.55899810791016 227.64700317382807 L -108.64700317382812 227.7660064697265 L -108.7229995727539 227.89199829101557 L -108.78500366210938 228.02499389648432 L -108.83499908447266 228.1640014648437 L -108.87100219726562 228.30599975585932 L -108.89299774169922 228.45199584960932 L -108.9000015258789 228.59899902343744 L -108.9000015258789 227.09899902343744 L -108.9000015258789 222.09800720214838 L -111.9000015258789 222.09800720214838 L -111.9000015258789 220.60000610351557 L -114.9000015258789 220.60000610351557 L -114.9000015258789 217.60000610351557 L -111.9000015258789 217.60000610351557 L -111.9000015258789 211.99999999999994 L -111.9000015258789 211.60000610351557 L -96.9000015258789 211.60000610351557 L -96.25199890136719 211.60000610351557 L -96.25199890136719 211.99999999999994 L -96.25199890136719 214.45300292968744 L -93.5469970703125 214.45300292968744 L -93.5469970703125 211.99999999999994 L -93.5469970703125 211.60000610351557 L -80.9000015258789 211.60000610351557 L -77.9000015258789 211.60000610351557 L -77.9000015258789 211.99999999999994 L -77.9000015258789 228.59899902343744 L -77.9000015258789 240.60000610351557 L -74.9000015258789 240.60000610351557 L -74.9000015258789 243.60000610351557 L -77.9000015258789 243.60000610351557 L -77.9000015258789 245.09800720214838 L -77.9000015258789 258.5029907226562 L -77.9000015258789 272.60000610351557 L -93.5469970703125 272.60000610351557 L -93.5469970703125 269.7479858398437 L -96.25199890136719 269.7479858398437 L -96.25199890136719 272.60000610351557 L -105.89700317382812 272.60000610351557 L -108.9000015258789 272.60000610351557 L -111.9000015258789 272.60000610351557 L -111.9000015258789 266.60000610351557 L -114.9000015258789 266.60000610351557 L -114.9000015258789 263.60000610351557 M -74.69999694824219 214.60000610351557 L -69.69999694824219 214.60000610351557 L -69.69999694824219 211.99999999999994 L -69.69999694824219 211.60000610351557 L -67.69999694824219 211.60000610351557 L -66.69999694824219 211.60000610351557 L -66.69999694824219 211.99999999999994 L -66.69999694824219 214.60000610351557 L -61.70000076293945 214.60000610351557 L -61.70000076293945 269.60000610351557 L -66.69999694824219 269.60000610351557 L -66.69999694824219 272.60000610351557 L -69.69999694824219 272.60000610351557 L -69.69999694824219 269.60000610351557 L -74.69999694824219 269.60000610351557 L -74.69999694824219 214.60000610351557 M -61.599998474121094 214.60000610351557 L -56.599998474121094 214.60000610351557 L -56.599998474121094 211.99999999999994 L -56.599998474121094 211.60000610351557 L -54.70000076293945 211.60000610351557 L -53.599998474121094 211.60000610351557 L -53.599998474121094 211.99999999999994 L -53.599998474121094 214.60000610351557 L -48.599998474121094 214.60000610351557 L -48.599998474121094 269.60000610351557 L -53.599998474121094 269.60000610351557 L -53.599998474121094 272.60000610351557 L -56.599998474121094 272.60000610351557 L -56.599998474121094 269.60000610351557 L -61.599998474121094 269.60000610351557 L -61.599998474121094 214.60000610351557 M 18.10099983215332 279.55325317382807 L 18.10099983215332 279.4979858398437 L 17.750999450683594 279.4979858398437 L 16.384000778198242 279.4979858398437 L 13.99899959564209 279.4979858398437 L 13.99899959564209 279.55325317382807 L 13.1899995803833 279.6809997558593 L 12.144000053405762 280.21398925781244 L 11.314000129699707 281.0440063476562 L 10.781000137329102 282.08999633789057 L 10.597000122070312 283.24999999999994 L 10.763551712036133 284.2999877929687 L 10.781000137329102 284.4100036621093 L 11.314000129699707 285.4559936523437 L 12.144000053405762 286.28601074218744 L 12.995715141296387 286.72000122070307 L 13.1899995803833 286.81900024414057 L 13.99899959564209 286.9474487304687 L 13.99899959564209 287.0029907226562 L 16.951749801635742 287.0029907226562 L 17.750999450683594 287.0029907226562 L 18.10099983215332 287.0029907226562 L 18.10099983215332 286.9474487304687 L 18.90999984741211 286.81900024414057 L 19.104284286499023 286.72000122070307 L 19.95599937438965 286.28601074218744 L 20.785999298095703 285.4559936523437 L 21.319000244140625 284.4100036621093 L 21.336353302001953 284.2999877929687 L 21.50200080871582 283.24999999999994 L 21.319000244140625 282.08999633789057 L 20.785999298095703 281.0440063476562 L 19.95599937438965 280.21398925781244 L 18.90999984741211 279.6809997558593 L 18.10099983215332 279.55325317382807 M -9.199000358581543 279.55325317382807 L -9.199000358581543 279.4979858398437 L -9.548999786376953 279.4979858398437 L -13.300999641418457 279.4979858398437 L -13.300999641418457 279.55325317382807 L -14.109999656677246 279.6809997558593 L -15.156000137329102 280.21398925781244 L -15.986000061035156 281.0440063476562 L -16.384000778198242 281.82507324218744 L -16.518999099731445 282.08999633789057 L -16.702999114990234 283.24999999999994 L -16.536447525024414 284.2999877929687 L -16.518999099731445 284.4100036621093 L -16.384000778198242 284.67492675781244 L -15.986000061035156 285.4559936523437 L -15.156000137329102 286.28601074218744 L -14.304285049438477 286.72000122070307 L -14.109999656677246 286.81900024414057 L -13.300999641418457 286.9474487304687 L -13.300999641418457 287.0029907226562 L -10.348249435424805 287.0029907226562 L -9.548999786376953 287.0029907226562 L -9.199000358581543 287.0029907226562 L -9.199000358581543 286.9474487304687 L -8.390000343322754 286.81900024414057 L -8.195714950561523 286.72000122070307 L -8.192000389099121 286.7181091308593 L -7.343999862670898 286.28601074218744 L -6.513999938964844 285.4559936523437 L -5.980999946594238 284.4100036621093 L -5.963646411895752 284.2999877929687 L -5.797999858856201 283.24999999999994 L -5.980999946594238 282.08999633789057 L -6.513999938964844 281.0440063476562 L -7.343999862670898 280.21398925781244 L -8.192000389099121 279.78189086914057 L -8.390000343322754 279.6809997558593 L -9.199000358581543 279.55325317382807 M -105.9000015258789 150.49999999999997 L -105.9000015258789 153.49999999999997 L -96.9000015258789 153.49999999999997 L -92.73600006103516 153.49999999999997 L -87.9000015258789 153.49999999999997 L -80.9000015258789 153.49999999999997 L -80.9000015258789 163.49999999999997 L -77.9000015258789 163.49999999999997 L -77.9000015258789 166.49999999999997 L -80.9000015258789 166.49999999999997 L -80.9000015258789 178.99999999999997 L -80.9000015258789 191.99999999999994 L -80.9000015258789 195.49999999999994 L -77.9000015258789 195.49999999999994 L -77.9000015258789 198.49999999999994 L -80.9000015258789 198.49999999999994 L -80.9000015258789 201.10299682617182 L -80.9000015258789 208.49999999999994 L -96.9000015258789 208.49999999999994 L -105.9000015258789 208.49999999999994 L -105.9000015258789 211.49999999999994 L -108.9000015258789 211.49999999999994 L -108.9000015258789 208.49999999999994 L -114.9000015258789 208.49999999999994 L -114.9000015258789 201.10299682617182 L -96.9000015258789 201.10299682617182 L -93.98699951171875 201.10299682617182 L -93.79100036621094 201.07800292968744 L -93.5999984741211 201.00399780273432 L -93.41899871826172 200.8829956054687 L -93.25199890136719 200.71899414062494 L -93.10299682617188 200.51400756835932 L -92.9749984741211 200.27400207519526 L -92.87300109863281 200.00500488281244 L -92.7979965209961 199.71299743652338 L -92.75199890136719 199.406997680664 L -92.73600006103516 199.09199523925776 L -92.73600006103516 197.00300598144526 L -83.73600006103516 197.00300598144526 L -83.73600006103516 191.99999999999994 L -83.73600006103516 178.99999999999997 L -83.73600006103516 164.99800109863278 L -87.9000015258789 164.99800109863278 L -92.73600006103516 164.99800109863278 L -92.73600006103516 163.8399963378906 L -92.73600006103516 162.90800476074216 L -92.75199890136719 162.5930023193359 L -92.7979965209961 162.28700256347653 L -92.87300109863281 161.99499511718747 L -92.9749984741211 161.72599792480466 L -93.10299682617188 161.4859924316406 L -93.25199890136719 161.28100585937497 L -93.41899871826172 161.11700439453122 L -93.5999984741211 160.9960021972656 L -93.79100036621094 160.92199707031247 L -93.98699951171875 160.89799499511716 L -96.9000015258789 160.89799499511716 L -114.9000015258789 160.89799499511716 L -114.9000015258789 153.49999999999997 L -108.9000015258789 153.49999999999997 L -108.9000015258789 150.49999999999997 L -105.9000015258789 150.49999999999997 M -105.80000305175781 161.99999999999997 L -105.80000305175781 164.99999999999997 L -104.40299987792969 164.99999999999997 L -100.3030014038086 164.99999999999997 L -100.3030014038086 176.83599853515622 L -102.39199829101562 176.83599853515622 L -102.70700073242188 176.85200500488278 L -103.01300048828125 176.89799499511716 L -103.30500030517578 176.9730072021484 L -103.5739974975586 177.07499694824216 L -103.81400299072266 177.20300292968747 L -104.01899719238281 177.35200500488278 L -104.18299865722656 177.51899719238278 L -104.30400085449219 177.69999694824216 L -104.37799835205078 177.89100646972653 L -104.40299987792969 178.08700561523435 L -104.40299987792969 196.60800170898432 L -104.40299987792969 198.99999999999994 L -111.80000305175781 198.99999999999994 L -111.80000305175781 192.99999999999994 L -114.80000305175781 192.99999999999994 L -114.80000305175781 189.99999999999997 L -111.80000305175781 189.99999999999997 L -111.80000305175781 184.12499999999997 L -111.80000305175781 181.12499999999997 L -111.80000305175781 173.99999999999997 L -114.80000305175781 173.99999999999997 L -114.80000305175781 170.99999999999997 L -111.80000305175781 170.99999999999997 L -111.80000305175781 164.99999999999997 L -108.80000305175781 164.99999999999997 L -108.80000305175781 161.99999999999997 L -105.80000305175781 161.99999999999997 M -54.70000076293945 211.49999999999994 L -56.599998474121094 211.49999999999994 L -57.70000076293945 211.49999999999994 L -57.70000076293945 208.49999999999994 L -66.69999694824219 208.49999999999994 L -67.69999694824219 208.49999999999994 L -67.69999694824219 211.49999999999994 L -69.69999694824219 211.49999999999994 L -70.69999694824219 211.49999999999994 L -70.69999694824219 208.49999999999994 L -77.69999694824219 208.49999999999994 L -77.69999694824219 191.99999999999994 L -77.69999694824219 182.50300598144528 L -77.69999694824219 179.49800109863278 L -77.69999694824219 178.99999999999997 L -77.69999694824219 153.49999999999997 L -70.69999694824219 153.49999999999997 L -70.69999694824219 150.49999999999997 L -67.69999694824219 150.49999999999997 L -67.69999694824219 153.49999999999997 L -57.70000076293945 153.49999999999997 L -57.70000076293945 150.49999999999997 L -54.70000076293945 150.49999999999997 L -54.70000076293945 153.49999999999997 L -53.49800109863281 153.49999999999997 L -47.70000076293945 153.49999999999997 L -47.70000076293945 178.99999999999997 L -47.70000076293945 179.49800109863278 L -53.49800109863281 179.49800109863278 L -53.49800109863281 178.99999999999997 L -53.49800109863281 167.74800109863278 L -56.50299835205078 167.74800109863278 L -56.50299835205078 178.99999999999997 L -56.50299835205078 179.49800109863278 L -67.69999694824219 179.49800109863278 L -70.69999694824219 179.49800109863278 L -71.25299835205078 179.49800109863278 L -71.25299835205078 182.50300598144528 L -70.69999694824219 182.50300598144528 L -67.69999694824219 182.50300598144528 L -56.50299835205078 182.50300598144528 L -56.50299835205078 191.99999999999994 L -56.50299835205078 194.25300598144526 L -53.599998474121094 194.25300598144526 L -53.49800109863281 194.25300598144526 L -53.49800109863281 191.99999999999994 L -53.49800109863281 182.50300598144528 L -47.70000076293945 182.50300598144528 L -47.70000076293945 191.99999999999994 L -47.70000076293945 208.49999999999994 L -53.49800109863281 208.49999999999994 L -53.599998474121094 208.49999999999994 L -54.70000076293945 208.49999999999994 L -54.70000076293945 211.49999999999994 M -93.79100036621094 183.2200012207031 L -92.4000015258789 182.99999999999997 L -91.01000213623047 183.2200012207031 L -90.89800262451172 183.27711486816403 L -89.75499725341797 183.86000061035153 L -88.76000213623047 184.85499572753903 L -88.12100219726562 186.11000061035153 L -87.9000015258789 187.49999999999997 L -88.0455322265625 188.4160003662109 L -88.12100219726562 188.89100646972653 L -88.17807006835938 189.00300598144528 L -88.76000213623047 190.1450042724609 L -89.75499725341797 191.14100646972653 L -91.01000213623047 191.77999877929685 L -92.4000015258789 191.99999999999994 L -93.79100036621094 191.77999877929685 L -93.90299987792969 191.7229309082031 L -95.04499816894531 191.14100646972653 L -96.04100036621094 190.1450042724609 L -96.68000030517578 188.89100646972653 L -96.755126953125 188.4160003662109 L -96.9000015258789 187.49999999999997 L -96.68000030517578 186.11000061035153 L -96.04100036621094 184.85499572753903 L -95.04499816894531 183.86000061035153 L -93.90299987792969 183.27716064453122 L -93.79100036621094 183.2200012207031 M -88.76000213623047 171.85499572753903 L -88.66987609863281 172.03199768066403 L -88.12100219726562 173.11000061035153 L -87.9000015258789 174.49999999999997 L -88.12100219726562 175.89100646972653 L -88.17807006835938 176.00300598144528 L -88.76000213623047 177.1450042724609 L -89.75499725341797 178.14100646972653 L -91.01000213623047 178.77999877929685 L -92.4000015258789 178.99999999999997 L -93.79100036621094 178.77999877929685 L -93.90299987792969 178.7229309082031 L -95.04499816894531 178.14100646972653 L -96.04100036621094 177.1450042724609 L -96.68000030517578 175.89100646972653 L -96.9000015258789 174.49999999999997 L -96.68000030517578 173.11000061035153 L -96.13111877441406 172.03199768066403 L -96.04100036621094 171.85499572753903 L -95.04499816894531 170.86000061035153 L -93.79100036621094 170.2200012207031 L -92.4000015258789 169.99999999999997 L -91.01000213623047 170.2200012207031 L -89.75499725341797 170.86000061035153 L -88.76000213623047 171.85499572753903 M -122 196.49999999999994 L -122.01708984375 196.60800170898432 L -122.22000122070312 197.88999938964838 L -122.27702331542969 198.00199890136713 L -122.85900115966797 199.14500427246088 L -123.8550033569336 200.13999938964838 L -125.10900115966797 200.77999877929682 L -126.5 200.99999999999994 L -127.88999938964844 200.77999877929682 L -128.0019989013672 200.72288513183588 L -129.14500427246094 200.13999938964838 L -130.13999938964844 199.14500427246088 L -130.7790069580078 197.88999938964838 L -130.9828338623047 196.60800170898432 L -131 196.49999999999994 L -130.7790069580078 195.10899353027338 L -130.13999938964844 193.854995727539 L -129.14500427246094 192.85899353027338 L -128.0019989013672 192.27702331542963 L -127.88999938964844 192.22000122070307 L -126.5 191.99999999999994 L -125.10900115966797 192.22000122070307 L -124.99700164794922 192.27706909179682 L -123.8550033569336 192.85899353027338 L -122.85900115966797 193.854995727539 L -122.22000122070312 195.10899353027338 L -122 196.49999999999994 M -123.8550033569336 203.85899353027338 L -122.91400146484375 204.80000305175776 L -122.85900115966797 204.854995727539 L -122.22000122070312 206.10899353027338 L -122 207.49999999999994 L -122.22000122070312 208.88999938964838 L -122.27702331542969 209.00199890136713 L -122.85900115966797 210.14500427246088 L -123.8550033569336 211.13999938964838 L -125.10900115966797 211.77999877929682 L -126.5 211.99999999999994 L -127.88999938964844 211.77999877929682 L -128.0019989013672 211.72288513183588 L -129.14500427246094 211.13999938964838 L -130.13999938964844 210.14500427246088 L -130.7790069580078 208.88999938964838 L -131 207.49999999999994 L -130.7790069580078 206.10899353027338 L -130.13999938964844 204.854995727539 L -130.08505249023438 204.80000305175776 L -129.14500427246094 203.85899353027338 L -127.88999938964844 203.22000122070307 L -126.5 202.99999999999994 L -125.10900115966797 203.22000122070307 L -123.8550033569336 203.85899353027338 M 152.5 254.44308471679682 L 150.979248046875 257.6969909667968 L 149.57481384277344 260.7019958496093 L 148.7237548828125 262.5230102539062 L 147.45953369140625 265.2279968261718 L 145.32135009765625 269.80300903320307 L 144.0832977294922 272.4519958496093 L 142.1900177001953 276.5029907226562 L 138.54598999023438 284.2999877929687 L 137.37852478027344 286.79800415039057 L 135.39222717285156 291.04800415039057 L 134.4107666015625 293.1480102539062 L 133.96583557128906 294.10000610351557 L 133.14654541015625 295.8529968261718 L 133.07644653320312 296.0029907226562 L 132.56375122070312 297.10000610351557 L 131.65098571777344 299.05300903320307 L 131.16165161132812 300.10000610351557 L 130.3241424560547 301.89199829101557 L 129.57261657714844 303.49999999999994 L 122.8736801147461 303.49999999999994 L 100.99800109863281 303.49999999999994 L 91.89800262451172 303.49999999999994 L 82.93167877197266 303.49999999999994 L 75.31822967529297 303.49999999999994 L 74.56671905517578 301.89199829101557 L 73.7292251586914 300.10000610351557 L 73.23990631103516 299.05300903320307 L 72.32716369628906 297.10000610351557 L 71.74436950683594 295.8529968261718 L 70.92510223388672 294.10000610351557 L 70.48017883300781 293.1480102539062 L 69.49874114990234 291.04800415039057 L 66.34503173828125 284.2999877929687 L 65.5999984741211 282.70584106445307 L 65.21846008300781 281.8894653320312 L 63.86619186401367 278.99600219726557 L 63.82272720336914 278.9030151367187 L 62.85300064086914 276.8280639648437 L 62.38615417480469 275.8291625976562 L 60.1525993347168 271.0499877929687 L 55.31642150878906 260.7019958496093 L 53.91202163696289 257.6969909667968 L 52.5 254.67568969726557 L 52.5 253.878189086914 L 52.5 221.15299987792963 L 52.5 218.44799804687494 L 52.5 190.9859924316406 L 54.50199890136719 190.9859924316406 L 54.50199890136719 187.00199890136716 L 54.50199890136719 184.2980041503906 L 54.50199890136719 179.98100280761716 L 52.5 179.98100280761716 L 52.5 176.85299682617185 L 52.5 150.49999999999997 L 65.5999984741211 150.49999999999997 L 91.89800262451172 150.49999999999997 L 100.99800109863281 150.49999999999997 L 104.00199890136719 150.49999999999997 L 104.24700164794922 150.49999999999997 L 106.75199890136719 150.49999999999997 L 113.10199737548828 150.49999999999997 L 152.5 150.49999999999997 L 152.5 153.49800109863278 L 152.5 156.35299682617185 L 152.5 174.14799499511716 L 152.5 176.85299682617185 L 152.5 179.98100280761716 L 150.4980010986328 179.98100280761716 L 150.4980010986328 184.2980041503906 L 150.4980010986328 187.00199890136716 L 150.4980010986328 189.55200195312497 L 150.4980010986328 190.9859924316406 L 152.5 190.9859924316406 L 152.5 218.44799804687494 L 152.5 221.15299987792963 L 152.5 235.281997680664 L 152.5 253.63829040527338 L 152.5 254.44308471679682 M 100.99800109863281 248.83496093749994 L 99.2239990234375 249.11599731445307 L 96.26799774169922 250.62199401855463 L 93.9219970703125 252.96800231933588 L 92.41600036621094 255.92399597167963 L 92.13565063476562 257.6969909667968 L 91.89800262451172 257.6969909667968 L 89.24800109863281 257.6969909667968 L 86.24800109863281 257.6969909667968 L 86.24800109863281 260.7019958496093 L 89.24800109863281 260.7019958496093 L 91.89800262451172 260.7019958496093 L 92.135498046875 260.7019958496093 L 92.3635025024414 262.1440124511718 L 92.41600036621094 262.4760131835937 L 93.9219970703125 265.43200683593744 L 96.26799774169922 267.7780151367187 L 99.2239990234375 269.2839965820312 L 100.99800109863281 269.5650329589843 L 100.99800109863281 269.80300903320307 L 100.99800109863281 272.4519958496093 L 104.00199890136719 272.4519958496093 L 104.00199890136719 269.80300903320307 L 104.00199890136719 269.5650329589843 L 105.7760009765625 269.2839965820312 L 108.73200225830078 267.7780151367187 L 111.0780029296875 265.43200683593744 L 112.58399963378906 262.4760131835937 L 112.6364974975586 262.1440124511718 L 112.864501953125 260.7019958496093 L 113.10199737548828 260.7019958496093 L 115.75199890136719 260.7019958496093 L 118.75199890136719 260.7019958496093 L 118.75199890136719 257.6969909667968 L 115.75199890136719 257.6969909667968 L 113.10199737548828 257.6969909667968 L 112.86434936523438 257.6969909667968 L 112.58399963378906 255.92399597167963 L 111.0780029296875 252.96800231933588 L 108.73200225830078 250.62199401855463 L 105.7760009765625 249.11599731445307 L 104.00199890136719 248.83496093749994 L 104.00199890136719 248.59700012207026 L 104.00199890136719 245.94799804687494 L 100.99800109863281 245.94799804687494 L 100.99800109863281 248.59700012207026 L 100.99800109863281 248.83496093749994 M 52.400001525878906 254.44308471679682 L 44.638545989990234 271.0499877929687 L 44.02149963378906 272.37026977539057 L 43.10988998413086 274.32080078124994 L 42.484886169433594 275.65811157226557 L 41.847999572753906 277.0208435058593 L 40.968345642089844 278.9030151367187 L 40.92488098144531 278.99600219726557 L 40.646610260009766 279.5914001464843 L 40.192108154296875 280.5639038085937 L 39.72267150878906 281.5683288574218 L 39.435699462890625 282.1823425292968 L 39.099998474121094 282.90063476562494 L 38.44599151611328 284.2999877929687 L 37.182708740234375 287.0029907226562 L 37.052459716796875 287.2816772460937 L 36.5765380859375 288.2999877929687 L 35.1744499206543 291.2999877929687 L 33.8658332824707 294.10000610351557 L 32.4637451171875 297.10000610351557 L 31.626232147216797 298.89199829101557 L 31.061656951904297 300.10000610351557 L 30.224143981933594 301.89199829101557 L 29.472623825073242 303.49999999999994 L 22.773683547973633 303.49999999999994 L -17.168319702148438 303.49999999999994 L -24.78177261352539 303.49999999999994 L -25.53327751159668 301.89199829101557 L -26.37077522277832 300.10000610351557 L -26.935338973999023 298.89199829101557 L -27.772836685180664 297.10000610351557 L -29.174898147583008 294.10000610351557 L -30.483488082885742 291.2999877929687 L -31.885549545288086 288.2999877929687 L -32.51005554199219 286.96374511718744 L -33.754966735839844 284.2999877929687 L -45.005104064941406 260.2279968261718 L -46.2697639465332 257.52200317382807 L -47.599998474121094 254.67568969726557 L -47.599998474121094 253.878189086914 L -47.599998474121094 211.99999999999994 L -47.599998474121094 191.99999999999994 L -47.599998474121094 178.99999999999997 L -47.599998474121094 150.49999999999997 L -28.10300064086914 150.49999999999997 L -25.097999572753906 150.49999999999997 L 39.099998474121094 150.49999999999997 L 52.400001525878906 150.49999999999997 L 52.400001525878906 223.96658325195307 L 52.400001525878906 253.63829040527338 L 52.400001525878906 254.44308471679682 M 61.93899917602539 279.25601196289057 L 62.06246566772461 279.31884765624994 L 62.85300064086914 279.72134399414057 L 63.417999267578125 280.0090026855468 L 64.59100341796875 281.18200683593744 L 65.33903503417969 282.65124511718744 L 65.5999984741211 284.2999877929687 L 65.5999984741211 294.10000610351557 L 68.5999984741211 294.10000610351557 L 68.5999984741211 297.10000610351557 L 65.5999984741211 297.10000610351557 L 65.5999984741211 297.1029968261718 L 65.5999984741211 300.10000610351557 L 52.5 300.10000610351557 L 52.400001525878906 300.10000610351557 L 39.099998474121094 300.10000610351557 L 39.099998474121094 298.89199829101557 L 39.099998474121094 297.1029968261718 L 39.099998474121094 297.10000610351557 L 36.099998474121094 297.10000610351557 L 36.099998474121094 294.10000610351557 L 39.099998474121094 294.10000610351557 L 39.099998474121094 291.2999877929687 L 39.099998474121094 288.2999877929687 L 39.099998474121094 286.6692504882812 L 39.099998474121094 284.2999877929687 L 39.361549377441406 282.6500854492187 L 40.10900115966797 281.18200683593744 L 41.28200149536133 280.0090026855468 L 41.847999572753906 279.72082519531244 L 42.76100158691406 279.25601196289057 L 43.32352828979492 279.16677856445307 L 42.36199951171875 281.0549926757812 L 41.847999572753906 284.2999877929687 L 42.36199951171875 287.5450134277343 L 43.85300064086914 290.4729919433593 L 46.176998138427734 292.79699707031244 L 48.735809326171875 294.10000610351557 L 49.10499954223633 294.28799438476557 L 49.7981071472168 294.3980102539062 L 50.99800109863281 294.5884399414062 L 50.99800109863281 294.80300903320307 L 50.99800109863281 297.10000610351557 L 50.99800109863281 297.1029968261718 L 53.702999114990234 297.1029968261718 L 53.702999114990234 297.10000610351557 L 53.702999114990234 294.80300903320307 L 53.702999114990234 294.58825683593744 L 54.901893615722656 294.3980102539062 L 55.595001220703125 294.28799438476557 L 55.96419143676758 294.10000610351557 L 58.52299880981445 292.79699707031244 L 60.84700012207031 290.4729919433593 L 62.3380012512207 287.5450134277343 L 62.85300064086914 284.2999877929687 L 62.3380012512207 281.0549926757812 L 61.376468658447266 279.16677856445307 L 61.93899917602539 279.25601196289057 M -61.5 291.4939880371093 L -61.5 294.10000610351557 L -61.5 297.10000610351557 L -61.5 298.89199829101557 L -67.5 298.89199829101557 L -67.5 300.10000610351557 L -67.5 301.89199829101557 L -70.5 301.89199829101557 L -70.5 300.10000610351557 L -70.5 298.89199829101557 L -86.5 298.89199829101557 L -86.5 300.10000610351557 L -86.5 301.89199829101557 L -89.5 301.89199829101557 L -89.5 300.10000610351557 L -89.5 298.89199829101557 L -95.5 298.89199829101557 L -95.5 297.10000610351557 L -95.5 295.89199829101557 L -98.5 295.89199829101557 L -98.5 294.10000610351557 L -98.5 292.89199829101557 L -95.5 292.89199829101557 L -95.5 291.3940124511718 L -90.43099975585938 291.3940124511718 L -90.43099975585938 291.2999877929687 L -90.43099975585938 288.2999877929687 L -90.43099975585938 287.3940124511718 L -83.66400146484375 287.3940124511718 L -83.66400146484375 289.48400878906244 L -83.64800262451172 289.79800415039057 L -83.60199737548828 290.10501098632807 L -83.5270004272461 290.39700317382807 L -83.42500305175781 290.6659851074218 L -83.2969970703125 290.9049987792968 L -83.14800262451172 291.10998535156244 L -82.98100280761719 291.2749938964843 L -82.80299377441406 291.3940124511718 L -82.80000305175781 291.39599609374994 L -82.60900115966797 291.46899414062494 L -82.41300201416016 291.4939880371093 L -65.53600311279297 291.4939880371093 L -61.5 291.4939880371093 M -141 310.49999999999994 L -141.12599182128906 311.2959899902343 L -141.22000122070312 311.89001464843744 L -141.2770233154297 312.0020141601562 L -141.85899353027344 313.1449890136718 L -142.85499572753906 314.14001464843744 L -144.10899353027344 314.7799987792968 L -145.5 314.99999999999994 L -146.88999938964844 314.7799987792968 L -147.0019989013672 314.7228698730468 L -148.14500427246094 314.14001464843744 L -149.13999938964844 313.1449890136718 L -149.7790069580078 311.89001464843744 L -149.87344360351562 311.2959899902343 L -150 310.49999999999994 L -149.7790069580078 309.10900878906244 L -149.13999938964844 307.85501098632807 L -148.14500427246094 306.85900878906244 L -147.0019989013672 306.2770385742187 L -146.88999938964844 306.22000122070307 L -145.5 305.99999999999994 L -144.10899353027344 306.22000122070307 L -143.9969940185547 306.2770690917968 L -142.85499572753906 306.85900878906244 L -141.85899353027344 307.85501098632807 L -141.22000122070312 309.10900878906244 L -141 310.49999999999994 M -172.86500549316406 183.15400695800778 L -172.39999389648438 183.22700500488278 L -172.03199768066406 183.1690979003906 L -171.93600463867188 183.15400695800778 L -171.51699829101562 182.94000244140622 L -171.18499755859375 182.60800170898435 L -170.9709930419922 182.1889953613281 L -170.8979949951172 181.7250061035156 L -170.9709930419922 181.2599945068359 L -171.18499755859375 180.84100341796872 L -171.51699829101562 180.50900268554685 L -171.93600463867188 180.2960052490234 L -172.03199768066406 180.28068542480466 L -172.38746643066406 180.22399902343747 L -172.39999389648438 180.22200012207028 L -172.41256713867188 180.22399902343747 L -172.86500549316406 180.2960052490234 L -173.2830047607422 180.50900268554685 L -173.61599731445312 180.84100341796872 L -173.82899475097656 181.2599945068359 L -173.9029998779297 181.7250061035156 L -173.82899475097656 182.1889953613281 L -173.61599731445312 182.60800170898435 L -173.2830047607422 182.94000244140622 L -172.86500549316406 183.15400695800778 M -166.56300354003906 268.72399902343744 L -166.06700134277344 268.80300903320307 L -165.88800048828125 268.77444458007807 L -165.57200622558594 268.72399902343744 L -165.12600708007812 268.4970092773437 L -164.77099609375 268.1430053710937 L -164.54299926757812 267.6969909667968 L -164.46499633789062 267.2019958496093 L -164.54299926757812 266.70800781249994 L -164.77099609375 266.26199340820307 L -165.12600708007812 265.90798950195307 L -165.57200622558594 265.6799926757812 L -165.88800048828125 265.6302185058593 L -166.06700134277344 265.6019897460937 L -166.56300354003906 265.6799926757812 L -166.80299377441406 265.8027038574218 L -167.00900268554688 265.90798950195307 L -167.36399841308594 266.26199340820307 L -167.5919952392578 266.70800781249994 L -167.6699981689453 267.2019958496093 L -167.5919952392578 267.6969909667968 L -167.36399841308594 268.1430053710937 L -167.00900268554688 268.4970092773437 L -166.80299377441406 268.60183715820307 L -166.56300354003906 268.72399902343744 M -166.56300354003906 242.07600402832026 L -166.80299377441406 242.19815063476557 L -167.00900268554688 242.302993774414 L -167.36399841308594 242.656997680664 L -167.5919952392578 243.10299682617182 L -167.6699981689453 243.59800720214838 L -167.5919952392578 244.09199523925776 L -167.36399841308594 244.53799438476557 L -167.00900268554688 244.89199829101557 L -166.80299377441406 244.99731445312494 L -166.56300354003906 245.11999511718744 L -166.06700134277344 245.19799804687494 L -165.88800048828125 245.16979980468744 L -165.57200622558594 245.11999511718744 L -165.12600708007812 244.89199829101557 L -164.77099609375 244.53799438476557 L -164.54299926757812 244.09199523925776 L -164.46499633789062 243.59800720214838 L -164.50360107421875 243.35299682617182 L -164.54299926757812 243.10299682617182 L -164.77099609375 242.656997680664 L -165.12600708007812 242.302993774414 L -165.57200622558594 242.07600402832026 L -165.88800048828125 242.02619934082026 L -166.06700134277344 241.99800109863276 L -166.56300354003906 242.07600402832026 M -163.03599548339844 208.92900085449213 L -162.97108459472656 208.89599609374994 L -162.61700439453125 208.7160034179687 L -162.28500366210938 208.3829956054687 L -162.0709991455078 207.9640045166015 L -161.9980010986328 207.49999999999994 L -162.0709991455078 207.03599548339838 L -162.28500366210938 206.6170043945312 L -162.61700439453125 206.28500366210932 L -163.03599548339844 206.07099914550776 L -163.5 205.99800109863276 L -163.83999633789062 206.05137634277338 L -163.96499633789062 206.07099914550776 L -164.38400268554688 206.28500366210932 L -164.71600341796875 206.6170043945312 L -164.9290008544922 207.03599548339838 L -165.0030059814453 207.49999999999994 L -164.9290008544922 207.9640045166015 L -164.71600341796875 208.3829956054687 L -164.38400268554688 208.7160034179687 L -164.02992248535156 208.89599609374994 L -163.96499633789062 208.92900085449213 L -163.5 209.00300598144526 L -163.03599548339844 208.92900085449213 M -155.6479949951172 183.17236328124997 L -155.3000030517578 183.22700500488278 L -154.83599853515625 183.15400695800778 L -154.41700744628906 182.94000244140622 L -154.0850067138672 182.60800170898435 L -153.87100219726562 182.1889953613281 L -153.79800415039062 181.7250061035156 L -153.87100219726562 181.2599945068359 L -154.0850067138672 180.84100341796872 L -154.41700744628906 180.50900268554685 L -154.83599853515625 180.2960052490234 L -155.28746032714844 180.22399902343747 L -155.3000030517578 180.22200012207028 L -155.31256103515625 180.22399902343747 L -155.6479949951172 180.2773742675781 L -155.76499938964844 180.2960052490234 L -156.18299865722656 180.50900268554685 L -156.51600646972656 180.84100341796872 L -156.72900390625 181.2599945068359 L -156.80299377441406 181.7250061035156 L -156.72900390625 182.1889953613281 L -156.51600646972656 182.60800170898435 L -156.18299865722656 182.94000244140622 L -155.76499938964844 183.15400695800778 L -155.6479949951172 183.17236328124997 M -164.38299560546875 165.73100280761716 L -163.3000030517578 165.90299987792966 L -162.21800231933594 165.73100280761716 L -161.24200439453125 165.2339935302734 L -160.4669952392578 164.45899963378903 L -160.15147399902344 163.8399963378906 L -159.968994140625 163.48199462890622 L -159.79800415039062 162.39999389648435 L -159.968994140625 161.31799316406247 L -160.4669952392578 160.34100341796872 L -161.24200439453125 159.56599426269528 L -162.21800231933594 159.0690002441406 L -163.3000030517578 158.89799499511716 L -164.38299560546875 159.0690002441406 L -165.35899353027344 159.56599426269528 L -166.13400268554688 160.34100341796872 L -166.63099670410156 161.31799316406247 L -166.80299377441406 162.39999389648435 L -166.63099670410156 163.48199462890622 L -166.44888305664062 163.8399963378906 L -166.13400268554688 164.45899963378903 L -165.35899353027344 165.2339935302734 L -164.38299560546875 165.73100280761716 M -164.9290008544922 196.03599548339838 L -165.0019989013672 196.49999999999994 L -164.98501586914062 196.60800170898432 L -164.9290008544922 196.9640045166015 L -164.71499633789062 197.3829956054687 L -164.38299560546875 197.71499633789057 L -163.96400451660156 197.92900085449213 L -163.5 198.00199890136713 L -163.03500366210938 197.92900085449213 L -162.61599731445312 197.71499633789057 L -162.28399658203125 197.3829956054687 L -162.0709991455078 196.9640045166015 L -162.01422119140625 196.60800170898432 L -161.9969940185547 196.49999999999994 L -162.0709991455078 196.03599548339838 L -162.28399658203125 195.6170043945312 L -162.61599731445312 195.2839965820312 L -163.03500366210938 195.07099914550776 L -163.5 194.99699401855463 L -163.96400451660156 195.07099914550776 L -164.38299560546875 195.2839965820312 L -164.71499633789062 195.6170043945312 L -164.9290008544922 196.03599548339838 M -152.59677124023438 315.40322875976557 L -152.2969970703125 315.70300292968744 L -150.7209930419922 317.2789916992187 L -150 317.6461791992187 L -148.3509979248047 318.48599243164057 L -145.72300720214844 318.9030151367187 L -143.0959930419922 318.48599243164057 L -140.7259979248047 317.2789916992187 L -138.843994140625 315.3980102539062 L -138.64138793945312 314.99999999999994 L -137.63699340820312 313.02700805664057 L -137.3877410888672 311.45300292968744 L -137.36288452148438 311.2959899902343 L -137.2209930419922 310.3999938964843 L -137.48260498046875 308.7479858398437 L -137.63699340820312 307.7730102539062 L -138.843994140625 305.40200805664057 L -140.7259979248047 303.52099609374994 L -141 303.38146972656244 L -143.0959930419922 302.31399536132807 L -145.72300720214844 301.8980102539062 L -148.3509979248047 302.31399536132807 L -150 303.15380859374994 L -150.7209930419922 303.52099609374994 L -152.2969970703125 305.0969848632812 L -152.6020050048828 305.40200805664057 L -153.80999755859375 307.7730102539062 L -154.2259979248047 310.3999938964843 L -154.0841064453125 311.2959899902343 L -153.80999755859375 313.02700805664057 L -152.7803192138672 315.04800415039057 L -152.6020050048828 315.3980102539062 L -152.59677124023438 315.40322875976557 M -163.23699951171875 313.02700805664057 L -162.962890625 311.2959899902343 L -162.8209991455078 310.3999938964843 L -163.23699951171875 307.7730102539062 L -164.44400024414062 305.40200805664057 L -164.802001953125 305.04418945312494 L -166.3260040283203 303.52099609374994 L -167 303.17773437499994 L -168.6959991455078 302.31399536132807 L -171.322998046875 301.8980102539062 L -173.9510040283203 302.31399536132807 L -176 303.3575134277343 L -176.3209991455078 303.52099609374994 L -178.20199584960938 305.40200805664057 L -179.41000366210938 307.7730102539062 L -179.56439208984375 308.7479858398437 L -179.8260040283203 310.3999938964843 L -179.68411254882812 311.2959899902343 L -179.6592559814453 311.45300292968744 L -179.41000366210938 313.02700805664057 L -178.20199584960938 315.3980102539062 L -176.3209991455078 317.2789916992187 L -176 317.4424743652343 L -173.9510040283203 318.48599243164057 L -171.322998046875 318.9030151367187 L -168.6959991455078 318.48599243164057 L -166.3260040283203 317.2789916992187 L -164.802001953125 315.7557983398437 L -164.44400024414062 315.3980102539062 L -164.2658233642578 315.04800415039057 L -163.23699951171875 313.02700805664057 M -170.35479736328125 311.45300292968744 L -170.28500366210938 311.3829956054687 L -170.24057006835938 311.2959899902343 L -170.0709991455078 310.96398925781244 L -169.9980010986328 310.49999999999994 L -170.0709991455078 310.03601074218744 L -170.28500366210938 309.6170043945312 L -170.61700439453125 309.2850036621093 L -171.03599548339844 309.0710144042968 L -171.5 308.9979858398437 L -171.96499633789062 309.0710144042968 L -172.38400268554688 309.2850036621093 L -172.71600341796875 309.6170043945312 L -172.9290008544922 310.03601074218744 L -173.0030059814453 310.49999999999994 L -172.9290008544922 310.96398925781244 L -172.76022338867188 311.2959899902343 L -172.71600341796875 311.3829956054687 L -172.64620971679688 311.45300292968744 L -172.38400268554688 311.7160034179687 L -171.96499633789062 311.92898559570307 L -171.5 312.0029907226562 L -171.03599548339844 311.92898559570307 L -170.61700439453125 311.7160034179687 L -170.35479736328125 311.45300292968744 M -135.76499938964844 183.15400695800778 L -135.3000030517578 183.22700500488278 L -135.16799926757812 183.20623779296872 L -134.83599853515625 183.15400695800778 L -134.41700744628906 182.94000244140622 L -134.0850067138672 182.60800170898435 L -133.87100219726562 182.1889953613281 L -133.79800415039062 181.7250061035156 L -133.87100219726562 181.2599945068359 L -134.0850067138672 180.84100341796872 L -134.41700744628906 180.50900268554685 L -134.83599853515625 180.2960052490234 L -135.16799926757812 180.24305725097653 L -135.28746032714844 180.22399902343747 L -135.3000030517578 180.22200012207028 L -135.31256103515625 180.22399902343747 L -135.76499938964844 180.2960052490234 L -136.18299865722656 180.50900268554685 L -136.51600646972656 180.84100341796872 L -136.72900390625 181.2599945068359 L -136.80299377441406 181.7250061035156 L -136.72900390625 182.1889953613281 L -136.51600646972656 182.60800170898435 L -136.18299865722656 182.94000244140622 L -135.76499938964844 183.15400695800778 M -56.599998474121094 282.77835083007807 L -56.362998962402344 282.74099731445307 L -56.133602142333984 282.6239929199218 L -56.013999938964844 282.56298828124994 L -55.73699951171875 282.28601074218744 L -55.558998107910156 281.93701171874994 L -55.49800109863281 281.5499877929687 L -55.558998107910156 281.16299438476557 L -55.73699951171875 280.81399536132807 L -56.013999938964844 280.53601074218744 L -56.362998962402344 280.35900878906244 L -56.599998474121094 280.32104492187494 L -56.75 280.29699707031244 L -57.137001037597656 280.35900878906244 L -57.34400177001953 280.46398925781244 L -57.486000061035156 280.53601074218744 L -57.76300048828125 280.81399536132807 L -57.941001892089844 281.16299438476557 L -58.00299835205078 281.5499877929687 L -57.941001892089844 281.93701171874994 L -57.76300048828125 282.28601074218744 L -57.486000061035156 282.56298828124994 L -57.366397857666016 282.6239929199218 L -57.137001037597656 282.74099731445307 L -56.75 282.80200195312494 L -56.599998474121094 282.77835083007807 M 30.836000442504883 235.20799255371088 L 31.299999237060547 235.281997680664 L 31.763999938964844 235.20799255371088 L 32.18299865722656 234.99499511718744 L 32.51599884033203 234.6620025634765 L 32.729000091552734 234.24299621582026 L 32.801998138427734 233.77900695800776 L 32.753700256347656 233.47200012207026 L 32.729000091552734 233.3150024414062 L 32.51599884033203 232.89599609374994 L 32.18299865722656 232.56399536132807 L 31.763999938964844 232.35000610351557 L 31.299999237060547 232.2769927978515 L 30.836000442504883 232.35000610351557 L 30.41699981689453 232.56399536132807 L 30.083999633789062 232.89599609374994 L 29.871000289916992 233.3150024414062 L 29.84596061706543 233.47200012207026 L 29.797000885009766 233.77900695800776 L 29.871000289916992 234.24299621582026 L 30.083999633789062 234.6620025634765 L 30.41699981689453 234.99499511718744 L 30.836000442504883 235.20799255371088 M -27.06399917602539 235.20799255371088 L -26.600000381469727 235.281997680664 L -26.13599967956543 235.20799255371088 L -25.716999053955078 234.99499511718744 L -25.384000778198242 234.6620025634765 L -25.17099952697754 234.24299621582026 L -25.097999572753906 233.77900695800776 L -25.146299362182617 233.47200012207026 L -25.17099952697754 233.3150024414062 L -25.384000778198242 232.89599609374994 L -25.716999053955078 232.56399536132807 L -26.13599967956543 232.35000610351557 L -26.600000381469727 232.2769927978515 L -27.06399917602539 232.35000610351557 L -27.482999801635742 232.56399536132807 L -27.81599998474121 232.89599609374994 L -28.02899932861328 233.3150024414062 L -28.054039001464844 233.47200012207026 L -28.10300064086914 233.77900695800776 L -28.02899932861328 234.24299621582026 L -27.81599998474121 234.6620025634765 L -27.482999801635742 234.99499511718744 L -27.06399917602539 235.20799255371088 M 9.961000442504883 223.39799499511713 L 9.897000312805176 223.80000305175776 L 9.961000442504883 224.20300292968744 L 10.145999908447266 224.56599426269526 L 10.434000015258789 224.85400390624994 L 10.79699993133545 225.0390014648437 L 11.199999809265137 225.10299682617182 L 11.60200023651123 225.0390014648437 L 11.96500015258789 224.85400390624994 L 12.253000259399414 224.56599426269526 L 12.437999725341797 224.20300292968744 L 12.501999855041504 223.80000305175776 L 12.437999725341797 223.39799499511713 L 12.353399276733398 223.2319946289062 L 12.253000259399414 223.03500366210932 L 11.96500015258789 222.74600219726557 L 11.60200023651123 222.56100463867182 L 11.199999809265137 222.49800109863276 L 10.79699993133545 222.56100463867182 L 10.434000015258789 222.74600219726557 L 10.145999908447266 223.03500366210932 L 10.045600891113281 223.2319946289062 L 9.961000442504883 223.39799499511713 M -17.538999557495117 223.39799499511713 L -17.60300064086914 223.80000305175776 L -17.538999557495117 224.20300292968744 L -17.354000091552734 224.56599426269526 L -17.06599998474121 224.85400390624994 L -16.702999114990234 225.0390014648437 L -16.299999237060547 225.10299682617182 L -15.89799976348877 225.0390014648437 L -15.53499984741211 224.85400390624994 L -15.246999740600586 224.56599426269526 L -15.062000274658203 224.20300292968744 L -14.998000144958496 223.80000305175776 L -15.062000274658203 223.39799499511713 L -15.146600723266602 223.2319946289062 L -15.246999740600586 223.03500366210932 L -15.53499984741211 222.74600219726557 L -15.89799976348877 222.56100463867182 L -16.299999237060547 222.49800109863276 L -16.702999114990234 222.56100463867182 L -17.06599998474121 222.74600219726557 L -17.354000091552734 223.03500366210932 L -17.45439910888672 223.2319946289062 L -17.538999557495117 223.39799499511713 M -24.32200050354004 235.19799804687494 L -24.32200050354004 235.281997680664 L -24.32200050354004 243.20300292968744 L -19.077999114990234 243.20300292968744 L -19.077999114990234 235.281997680664 L -19.077999114990234 235.19799804687494 L -24.32200050354004 235.19799804687494 M -119.62899780273438 181.2599945068359 L -119.7030029296875 181.7250061035156 L -119.62899780273438 182.1889953613281 L -119.41600036621094 182.60800170898435 L -119.08300018310547 182.94000244140622 L -118.78399658203125 183.09307861328122 L -118.66500091552734 183.15400695800778 L -118.19999694824219 183.22700500488278 L -117.73600006103516 183.15400695800778 L -117.31700134277344 182.94000244140622 L -116.98500061035156 182.60800170898435 L -116.77100372314453 182.1889953613281 L -116.697998046875 181.7250061035156 L -116.77100372314453 181.2599945068359 L -116.98500061035156 180.84100341796872 L -117.31700134277344 180.50900268554685 L -117.73600006103516 180.2960052490234 L -118.18746185302734 180.22399902343747 L -118.19999694824219 180.22200012207028 L -118.21257019042969 180.22399902343747 L -118.66500091552734 180.2960052490234 L -118.78399658203125 180.35664367675778 L -119.08300018310547 180.50900268554685 L -119.41600036621094 180.84100341796872 L -119.62899780273438 181.2599945068359 M -93.8290023803711 187.0359954833984 L -93.90299987792969 187.49999999999997 L -93.8290023803711 187.96400451660153 L -93.61599731445312 188.38299560546872 L -93.58309936523438 188.4160003662109 L -93.28399658203125 188.71600341796872 L -92.86499786376953 188.92900085449216 L -92.4000015258789 189.00300598144528 L -91.93599700927734 188.92900085449216 L -91.51699829101562 188.71600341796872 L -91.21790313720703 188.4160003662109 L -91.18499755859375 188.38299560546872 L -90.97100067138672 187.96400451660153 L -90.89800262451172 187.49999999999997 L -90.97100067138672 187.0359954833984 L -91.18499755859375 186.61700439453122 L -91.51699829101562 186.28500366210935 L -91.93599700927734 186.07099914550778 L -92.16000366210938 186.0357513427734 L -92.4000015258789 185.99800109863278 L -92.86499786376953 186.07099914550778 L -93.28399658203125 186.28500366210935 L -93.61599731445312 186.61700439453122 L -93.8290023803711 187.0359954833984 M 25.361000061035156 172.39799499511716 L 25.297000885009766 172.80000305175778 L 25.361000061035156 173.20300292968747 L 25.54599952697754 173.56599426269528 L 25.833999633789062 173.85400390624997 L 26.19700050354004 174.03900146484372 L 26.600000381469727 174.10299682617185 L 26.624000549316406 174.09918212890622 L 27.00200080871582 174.03900146484372 L 27.364999771118164 173.85400390624997 L 27.652999877929688 173.56599426269528 L 27.83799934387207 173.20300292968747 L 27.902000427246094 172.80000305175778 L 27.83799934387207 172.39799499511716 L 27.652999877929688 172.03500366210935 L 27.65001106262207 172.03199768066403 L 27.364999771118164 171.7460021972656 L 27.00200080871582 171.56100463867185 L 26.600000381469727 171.49800109863278 L 26.19700050354004 171.56100463867185 L 25.833999633789062 171.7460021972656 L 25.54899024963379 172.03199768066403 L 25.54599952697754 172.03500366210935 L 25.361000061035156 172.39799499511716 M -20.34990119934082 172.03199768066403 L -20.29800033569336 171.69999694824216 L -20.361000061035156 171.2980041503906 L -20.54599952697754 170.93400573730466 L -20.833999633789062 170.64599609374997 L -21.197999954223633 170.46099853515622 L -21.600000381469727 170.3970031738281 L -22.00200080871582 170.46099853515622 L -22.365999221801758 170.64599609374997 L -22.65399932861328 170.93400573730466 L -22.839000701904297 171.2980041503906 L -22.902999877929688 171.69999694824216 L -22.85027503967285 172.03199768066403 L -22.839000701904297 172.10299682617185 L -22.65399932861328 172.46600341796872 L -22.365999221801758 172.75399780273435 L -22.00200080871582 172.9389953613281 L -21.600000381469727 173.00199890136716 L -21.197999954223633 172.9389953613281 L -20.833999633789062 172.75399780273435 L -20.54599952697754 172.46600341796872 L -20.361000061035156 172.10299682617185 L -20.34990119934082 172.03199768066403 M -93.83601379394531 174.08000183105466 L -93.90299987792969 174.49999999999997 L -93.8290023803711 174.96400451660153 L -93.61599731445312 175.38299560546872 L -93.28399658203125 175.71600341796872 L -92.86499786376953 175.92900085449216 L -92.4000015258789 176.00300598144528 L -91.93599700927734 175.92900085449216 L -91.51699829101562 175.71600341796872 L -91.18499755859375 175.38299560546872 L -90.97100067138672 174.96400451660153 L -90.89800262451172 174.49999999999997 L -90.96408081054688 174.08000183105466 L -90.97100067138672 174.0359954833984 L -91.18499755859375 173.61700439453122 L -91.51699829101562 173.28500366210935 L -91.93599700927734 173.07099914550778 L -92.4000015258789 172.99800109863278 L -92.86499786376953 173.07099914550778 L -93.28399658203125 173.28500366210935 L -93.61599731445312 173.61700439453122 L -93.8290023803711 174.0359954833984 L -93.83601379394531 174.08000183105466 M -127.28299713134766 165.73100280761716 L -126.19999694824219 165.90299987792966 L -125.11799621582031 165.73100280761716 L -124.14199829101562 165.2339935302734 L -123.36699676513672 164.45899963378903 L -123.05148315429688 163.8399963378906 L -122.86900329589844 163.48199462890622 L -122.697998046875 162.39999389648435 L -122.86900329589844 161.31799316406247 L -123.36699676513672 160.34100341796872 L -124.14199829101562 159.56599426269528 L -125.11799621582031 159.0690002441406 L -126.19999694824219 158.89799499511716 L -127.28299713134766 159.0690002441406 L -128.25900268554688 159.56599426269528 L -129.03399658203125 160.34100341796872 L -129.531005859375 161.31799316406247 L -129.7030029296875 162.39999389648435 L -129.531005859375 163.48199462890622 L -129.34889221191406 163.8399963378906 L -129.03399658203125 164.45899963378903 L -128.25900268554688 165.2339935302734 L -127.28299713134766 165.73100280761716 M -127.92900085449219 196.03599548339838 L -128.0019989013672 196.49999999999994 L -127.9850082397461 196.60800170898432 L -127.92900085449219 196.9640045166015 L -127.71499633789062 197.3829956054687 L -127.38300323486328 197.71499633789057 L -126.96399688720703 197.92900085449213 L -126.5 198.00199890136713 L -126.03500366210938 197.92900085449213 L -125.61599731445312 197.71499633789057 L -125.28399658203125 197.3829956054687 L -125.07099914550781 196.9640045166015 L -125.01422119140625 196.60800170898432 L -124.99700164794922 196.49999999999994 L -125.07099914550781 196.03599548339838 L -125.28399658203125 195.6170043945312 L -125.61599731445312 195.2839965820312 L -126.03500366210938 195.07099914550776 L -126.5 194.99699401855463 L -126.96399688720703 195.07099914550776 L -127.38300323486328 195.2839965820312 L -127.71499633789062 195.6170043945312 L -127.92900085449219 196.03599548339838 M -126.96399688720703 208.92900085449213 L -126.5 209.00199890136713 L -126.03500366210938 208.92900085449213 L -125.97039031982422 208.89599609374994 L -125.61599731445312 208.71499633789057 L -125.28399658203125 208.3829956054687 L -125.07099914550781 207.9640045166015 L -124.99700164794922 207.49999999999994 L -125.07099914550781 207.03599548339838 L -125.28399658203125 206.6170043945312 L -125.61599731445312 206.2839965820312 L -126.03500366210938 206.07099914550776 L -126.5 205.99699401855463 L -126.96399688720703 206.07099914550776 L -126.97599792480469 206.07710266113276 L -127.38300323486328 206.2839965820312 L -127.71499633789062 206.6170043945312 L -127.92900085449219 207.03599548339838 L -128.0019989013672 207.49999999999994 L -127.92900085449219 207.9640045166015 L -127.71499633789062 208.3829956054687 L -127.38300323486328 208.71499633789057 L -127.02861022949219 208.89599609374994 L -126.96399688720703 208.92900085449213 M 106.23600006103516 189.31300354003903 L 106.49600219726562 189.05299377441403 L 106.51300048828125 189.0359954833984 L 106.69100189208984 188.6869964599609 L 106.75199890136719 188.30000305175778 L 106.69100189208984 187.9129943847656 L 106.51300048828125 187.5639953613281 L 106.49600219726562 187.54699707031247 L 106.23600006103516 187.28700256347653 L 105.88600158691406 187.1089935302734 L 105.4990005493164 187.0480041503906 L 105.11199951171875 187.1089935302734 L 104.76300048828125 187.28700256347653 L 104.48600006103516 187.5639953613281 L 104.30799865722656 187.9129943847656 L 104.24700164794922 188.30000305175778 L 104.2652816772461 188.4160003662109 L 104.30799865722656 188.6869964599609 L 104.48600006103516 189.0359954833984 L 104.76300048828125 189.31300354003903 L 105.11199951171875 189.4909973144531 L 105.4990005493164 189.55200195312497 L 105.88600158691406 189.4909973144531 L 106.23600006103516 189.31300354003903 M 117.14800262451172 218.44799804687494 L 117.14800262451172 221.15299987792963 L 119.85199737548828 221.15299987792963 L 119.85199737548828 218.44799804687494 L 118.24800109863281 218.44799804687494 L 117.14800262451172 218.44799804687494 M 120.69100189208984 188.6869964599609 L 120.73371887207031 188.4160003662109 L 120.75199890136719 188.30000305175778 L 120.69100189208984 187.9129943847656 L 120.51300048828125 187.5639953613281 L 120.23600006103516 187.28700256347653 L 119.88700103759766 187.1089935302734 L 119.5 187.0480041503906 L 119.11299896240234 187.1089935302734 L 118.76399993896484 187.28700256347653 L 118.48699951171875 187.5639953613281 L 118.30899810791016 187.9129943847656 L 118.24800109863281 188.30000305175778 L 118.26628112792969 188.4160003662109 L 118.30899810791016 188.6869964599609 L 118.48699951171875 189.0359954833984 L 118.76399993896484 189.31300354003903 L 119.11299896240234 189.4909973144531 L 119.5 189.55200195312497 L 119.88700103759766 189.4909973144531 L 120.23600006103516 189.31300354003903 L 120.51300048828125 189.0359954833984 L 120.69100189208984 188.6869964599609 M 131.07200622558594 235.22969055175776 L 131.39999389648438 235.281997680664 L 131.86399841308594 235.20799255371088 L 132.2830047607422 234.99499511718744 L 132.61599731445312 234.6620025634765 L 132.82899475097656 234.24299621582026 L 132.9029998779297 233.77900695800776 L 132.82899475097656 233.3150024414062 L 132.61599731445312 232.89599609374994 L 132.2830047607422 232.56399536132807 L 131.86399841308594 232.35000610351557 L 131.39999389648438 232.2769927978515 L 131.07200622558594 232.32859802246088 L 130.93600463867188 232.35000610351557 L 130.51699829101562 232.56399536132807 L 130.1840057373047 232.89599609374994 L 129.9709930419922 233.3150024414062 L 129.89700317382812 233.77900695800776 L 129.9709930419922 234.24299621582026 L 130.1840057373047 234.6620025634765 L 130.51699829101562 234.99499511718744 L 130.93600463867188 235.20799255371088 L 131.07200622558594 235.22969055175776 M 73.03600311279297 235.20799255371088 L 73.5 235.281997680664 L 73.96399688720703 235.20799255371088 L 74.38300323486328 234.99499511718744 L 74.71600341796875 234.6620025634765 L 74.92900085449219 234.24299621582026 L 75.00199890136719 233.77900695800776 L 74.95369720458984 233.47200012207026 L 74.92900085449219 233.3150024414062 L 74.71600341796875 232.89599609374994 L 74.38300323486328 232.56399536132807 L 73.96399688720703 232.35000610351557 L 73.5 232.2769927978515 L 73.03600311279297 232.35000610351557 L 72.61699676513672 232.56399536132807 L 72.28399658203125 232.89599609374994 L 72.07099914550781 233.3150024414062 L 72.04630279541016 233.47200012207026 L 71.99800109863281 233.77900695800776 L 72.07099914550781 234.24299621582026 L 72.28399658203125 234.6620025634765 L 72.61699676513672 234.99499511718744 L 73.03600311279297 235.20799255371088 M 114.1709976196289 274.53601074218744 L 114.09700012207031 274.99999999999994 L 114.1709976196289 275.46398925781244 L 114.38400268554688 275.8829956054687 L 114.71700286865234 276.2160034179687 L 115.13600158691406 276.42898559570307 L 115.5999984741211 276.5029907226562 L 116.06400299072266 276.42898559570307 L 116.48300170898438 276.2160034179687 L 116.81600189208984 275.8829956054687 L 117.02899932861328 275.46398925781244 L 117.10199737548828 274.99999999999994 L 117.02899932861328 274.53601074218744 L 116.97612762451172 274.43200683593744 L 116.81600189208984 274.1170043945312 L 116.48300170898438 273.7839965820312 L 116.06400299072266 273.5710144042968 L 115.5999984741211 273.4979858398437 L 115.13600158691406 273.5710144042968 L 114.71700286865234 273.7839965820312 L 114.38400268554688 274.1170043945312 L 114.22386932373047 274.43200683593744 L 114.1709976196289 274.53601074218744 M 88.1709976196289 274.53601074218744 L 88.09700012207031 274.99999999999994 L 88.1709976196289 275.46398925781244 L 88.38400268554688 275.8829956054687 L 88.71700286865234 276.2160034179687 L 89.13600158691406 276.42898559570307 L 89.5999984741211 276.5029907226562 L 90.06400299072266 276.42898559570307 L 90.48300170898438 276.2160034179687 L 90.81600189208984 275.8829956054687 L 91.02899932861328 275.46398925781244 L 91.10199737548828 274.99999999999994 L 91.02899932861328 274.53601074218744 L 90.97612762451172 274.43200683593744 L 90.81600189208984 274.1170043945312 L 90.48300170898438 273.7839965820312 L 90.06400299072266 273.5710144042968 L 89.5999984741211 273.4979858398437 L 89.13600158691406 273.5710144042968 L 88.71700286865234 273.7839965820312 L 88.38400268554688 274.1170043945312 L 88.22386932373047 274.43200683593744 L 88.1709976196289 274.53601074218744 M 109.85299682617188 291.04800415039057 L 109.85299682617188 294.10000610351557 L 109.85299682617188 296.0029907226562 L 109.85299682617188 297.10000610351557 L 109.85299682617188 299.05300903320307 L 121.25800323486328 299.05300903320307 L 121.25800323486328 297.10000610351557 L 121.25800323486328 296.0029907226562 L 121.25800323486328 295.8529968261718 L 121.25800323486328 294.10000610351557 L 121.25800323486328 293.1480102539062 L 121.25800323486328 291.04800415039057 L 109.85299682617188 291.04800415039057 M 123.64800262451172 293.1480102539062 L 123.64800262451172 294.10000610351557 L 123.64800262451172 295.8529968261718 L 126.35199737548828 295.8529968261718 L 126.35199737548828 294.10000610351557 L 126.35199737548828 293.1480102539062 L 123.64800262451172 293.1480102539062 M 107.552001953125 286.79800415039057 L 100.99800109863281 286.79800415039057 L 97.5469970703125 286.79800415039057 L 97.5469970703125 291.04800415039057 L 97.5469970703125 294.10000610351557 L 97.5469970703125 296.0029907226562 L 100.99800109863281 296.0029907226562 L 107.552001953125 296.0029907226562 L 107.552001953125 294.10000610351557 L 107.552001953125 291.04800415039057 L 107.552001953125 286.79800415039057 M 78.64800262451172 293.1480102539062 L 78.64800262451172 294.10000610351557 L 78.64800262451172 295.8529968261718 L 81.35199737548828 295.8529968261718 L 81.35199737548828 294.10000610351557 L 81.35199737548828 293.1480102539062 L 78.64800262451172 293.1480102539062 M 1.0470000505447388 293.1480102539062 L 1.0470000505447388 294.10000610351557 L 1.0470000505447388 295.8529968261718 L 3.752000093460083 295.8529968261718 L 3.752000093460083 294.10000610351557 L 3.752000093460083 293.1480102539062 L 1.0470000505447388 293.1480102539062 M -58.904998779296875 285.79699707031244 L -61.5 285.79699707031244 L -90.43099975585938 285.79699707031244 L -95.5 285.79699707031244 L -98.5 285.79699707031244 L -98.8499984741211 285.79699707031244 L -99.01000213623047 285.79699707031244 L -99.01000213623047 288.2999877929687 L -99.01000213623047 291.2999877929687 L -99.01000213623047 293.10000610351557 L -99.01000213623047 294.10000610351557 L -99.01000213623047 294.91198730468744 L -99.01000213623047 297.10000610351557 L -99.01000213623047 300.10000610351557 L -99.01000213623047 303.80200195312494 L -98.8499984741211 303.80200195312494 L -58.904998779296875 303.80200195312494 L -58.904998779296875 301.89199829101557 L -58.904998779296875 300.10000610351557 L -58.904998779296875 298.89199829101557 L -58.904998779296875 297.10000610351557 L -58.904998779296875 294.10000610351557 L -58.904998779296875 291.2999877929687 L -58.904998779296875 288.2999877929687 L -58.904998779296875 285.79699707031244 M -146.9290008544922 310.96398925781244 L -146.75942993164062 311.2959899902343 L -146.71499633789062 311.3829956054687 L -146.38299560546875 311.71499633789057 L -145.96400451660156 311.92898559570307 L -145.5 312.0020141601562 L -145.03500366210938 311.92898559570307 L -144.61599731445312 311.71499633789057 L -144.28399658203125 311.3829956054687 L -144.23977661132812 311.2959899902343 L -144.0709991455078 310.96398925781244 L -143.9969940185547 310.49999999999994 L -144.0709991455078 310.03601074218744 L -144.28399658203125 309.6170043945312 L -144.61599731445312 309.2839965820312 L -145.03500366210938 309.0710144042968 L -145.5 308.9970092773437 L -145.96400451660156 309.0710144042968 L -146.38299560546875 309.2839965820312 L -146.71499633789062 309.6170043945312 L -146.9290008544922 310.03601074218744 L -147.0019989013672 310.49999999999994 L -146.9290008544922 310.96398925781244 M -178.2480010986328 284.29800415039057 L -180.9530029296875 284.29800415039057 L -180.9530029296875 287.0029907226562 L -178.2480010986328 287.0029907226562 L -178.2480010986328 284.29800415039057 M -170.86399841308594 188.69799804687497 L -170.86399841308594 214.70300292968744 L -168 214.70300292968744 L -166.80299377441406 214.70300292968744 L -155.85899353027344 214.70300292968744 L -155.85899353027344 211.99999999999994 L -155.85899353027344 200.99999999999994 L -155.85899353027344 189.12499999999997 L -155.85899353027344 188.69799804687497 L -159 188.69799804687497 L -166.80299377441406 188.69799804687497 L -168 188.69799804687497 L -170.86399841308594 188.69799804687497 M -179.9530029296875 173.85299682617185 L -177.2480010986328 173.85299682617185 L -177.2480010986328 171.14799499511716 L -179.9530029296875 171.14799499511716 L -179.9530029296875 173.85299682617185 M -179.9530029296875 215.44799804687494 L -179.9530029296875 218.15299987792963 L -177.2480010986328 218.15299987792963 L -177.2480010986328 215.44799804687494 L -179.9530029296875 215.44799804687494 M -170.4530029296875 232.15299987792963 L -168 232.15299987792963 L -167.7480010986328 232.15299987792963 L -167.7480010986328 229.44799804687494 L -168 229.44799804687494 L -170.4530029296875 229.44799804687494 L -170.4530029296875 232.15299987792963 M -178.2480010986328 275.29800415039057 L -180.9530029296875 275.29800415039057 L -180.9530029296875 278.0029907226562 L -178.2480010986328 278.0029907226562 L -178.2480010986328 275.29800415039057 M -158.2480010986328 171.14799499511716 L -159 171.14799499511716 L -160.9530029296875 171.14799499511716 L -160.9530029296875 173.85299682617185 L -159 173.85299682617185 L -158.2480010986328 173.85299682617185 L -158.2480010986328 171.14799499511716 M -133.35299682617188 232.15299987792963 L -131 232.15299987792963 L -130.6479949951172 232.15299987792963 L -130.6479949951172 229.44799804687494 L -131 229.44799804687494 L -133.35299682617188 229.44799804687494 L -133.35299682617188 232.15299987792963 M -140.1479949951172 171.14799499511716 L -141 171.14799499511716 L -142.85299682617188 171.14799499511716 L -142.85299682617188 173.85299682617185 L -141 173.85299682617185 L -140.1479949951172 173.85299682617185 L -140.1479949951172 171.14799499511716 M -140.1479949951172 215.44799804687494 L -141 215.44799804687494 L -142.85299682617188 215.44799804687494 L -142.85299682617188 218.15299987792963 L -141 218.15299987792963 L -140.1479949951172 218.15299987792963 L -140.1479949951172 215.44799804687494 M -133.76400756835938 214.70300292968744 L -131 214.70300292968744 L -118.75900268554688 214.70300292968744 L -118.75900268554688 211.99999999999994 L -118.75900268554688 188.69799804687497 L -122 188.69799804687497 L -131 188.69799804687497 L -133.76400756835938 188.69799804687497 L -133.76400756835938 214.70300292968744 M -105.89700317382812 245.09800720214838 L -108.9000015258789 245.09800720214838 L -109.38600158691406 245.09800720214838 L -109.38600158691406 258.5029907226562 L -108.9000015258789 258.5029907226562 L -105.89700317382812 258.5029907226562 L -100.28099822998047 258.5029907226562 L -100.28099822998047 245.09800720214838 L -105.89700317382812 245.09800720214838 M 32.75199890136719 257.52200317382807 L 30.047000885009766 257.52200317382807 L 30.047000885009766 260.2279968261718 L 32.75199890136719 260.2279968261718 L 32.75199890136719 257.52200317382807 M -27.952999114990234 257.52200317382807 L -27.952999114990234 260.2279968261718 L -25.24799919128418 260.2279968261718 L -25.24799919128418 257.52200317382807 L -27.952999114990234 257.52200317382807 M 29.121999740600586 231.90299987792963 L 29.121999740600586 230.92939758300776 L 29.121999740600586 225.10299682617182 L 29.121999740600586 223.89700317382807 L 23.878000259399414 223.89700317382807 L 23.878000259399414 225.10299682617182 L 23.878000259399414 231.90299987792963 L 25.867088317871094 231.90299987792963 L 29.121999740600586 231.90299987792963 M 29.121999740600586 243.20300292968744 L 29.121999740600586 235.19799804687494 L 23.878000259399414 235.19799804687494 L 23.878000259399414 243.20300292968744 L 29.121999740600586 243.20300292968744 M -19.077999114990234 231.90299987792963 L -19.077999114990234 223.89700317382807 L -24.32200050354004 223.89700317382807 L -24.32200050354004 231.90299987792963 L -19.077999114990234 231.90299987792963 M -121.14800262451172 173.85299682617185 L -121.14800262451172 171.14799499511716 L -122 171.14799499511716 L -123.85299682617188 171.14799499511716 L -123.85299682617188 173.85299682617185 L -122 173.85299682617185 L -121.14800262451172 173.85299682617185 M -25.24799919128418 191.97799682617185 L -25.24799919128418 189.2720031738281 L -27.952999114990234 189.2720031738281 L -27.952999114990234 191.97799682617185 L -25.24799919128418 191.97799682617185 M 32.75199890136719 189.2720031738281 L 30.047000885009766 189.2720031738281 L 30.047000885009766 191.97799682617185 L 32.75199890136719 191.97799682617185 L 32.75199890136719 189.2720031738281 M 3.752000093460083 153.6470031738281 L 1.0470000505447388 153.6470031738281 L 1.0470000505447388 156.35299682617185 L 3.752000093460083 156.35299682617185 L 3.752000093460083 153.6470031738281 M 132.85299682617188 184.2980041503906 L 130.14700317382812 184.2980041503906 L 130.14700317382812 187.00199890136716 L 132.85299682617188 187.00199890136716 L 132.85299682617188 184.2980041503906 M 126.85199737548828 174.14799499511716 L 124.14800262451172 174.14799499511716 L 124.14800262451172 176.85299682617185 L 126.85199737548828 176.85299682617185 L 126.85199737548828 174.14799499511716 M 126.85199737548828 153.49800109863278 L 124.14800262451172 153.49800109863278 L 124.14800262451172 156.35299682617185 L 126.85199737548828 156.35299682617185 L 126.85199737548828 153.49800109863278 M 74.85199737548828 187.00199890136716 L 74.85199737548828 184.2980041503906 L 72.14800262451172 184.2980041503906 L 72.14800262451172 187.00199890136716 L 74.85199737548828 187.00199890136716 M 80.85199737548828 176.85299682617185 L 80.85199737548828 174.14799499511716 L 78.14800262451172 174.14799499511716 L 78.14800262451172 176.85299682617185 L 80.85199737548828 176.85299682617185 M 80.85199737548828 156.35299682617185 L 80.85199737548828 153.49800109863278 L 78.14800262451172 153.49800109863278 L 78.14800262451172 156.35299682617185 L 80.85199737548828 156.35299682617185 M 85.14800262451172 221.15299987792963 L 87.85199737548828 221.15299987792963 L 87.85199737548828 218.44799804687494 L 85.14800262451172 218.44799804687494 L 85.14800262451172 221.15299987792963 M 132.85299682617188 262.5230102539062 L 130.14700317382812 262.5230102539062 L 130.14700317382812 265.2279968261718 L 132.85299682617188 265.2279968261718 L 132.85299682617188 262.5230102539062 M 74.85199737548828 265.2279968261718 L 74.85199737548828 262.5230102539062 L 72.14800262451172 262.5230102539062 L 72.14800262451172 265.2279968261718 L 74.85199737548828 265.2279968261718 M 95.35800170898438 291.04800415039057 L 91.89800262451172 291.04800415039057 L 83.9530029296875 291.04800415039057 L 83.9530029296875 293.1480102539062 L 83.9530029296875 294.10000610351557 L 83.9530029296875 295.8529968261718 L 83.9530029296875 297.10000610351557 L 83.9530029296875 299.05300903320307 L 91.89800262451172 299.05300903320307 L 95.35800170898438 299.05300903320307 L 95.35800170898438 297.10000610351557 L 95.35800170898438 296.0029907226562 L 95.35800170898438 294.10000610351557 L 95.35800170898438 291.04800415039057 M -141.1479949951172 275.29800415039057 L -143.85299682617188 275.29800415039057 L -143.85299682617188 278.0029907226562 L -141.1479949951172 278.0029907226562 L -141.1479949951172 275.29800415039057 M -141.1479949951172 284.29800415039057 L -143.85299682617188 284.29800415039057 L -143.85299682617188 287.0029907226562 L -141.1479949951172 287.0029907226562 L -141.1479949951172 284.29800415039057 z" fill="none" stroke="rgb(255,0,0)" stroke-width="0.001mm" />
</svg>